<?xml version="1.0" encoding="UTF-8"?>
<svg width="24px" height="24px" viewBox="0 0 24 24" version="1.1" xmlns="http://www.w3.org/2000/svg">
    <g stroke="none" stroke-width="1" fill="none" fill-rule="evenodd">
        <path d="M12,2 C6.48,2 2,6.48 2,12 C2,17.52 6.48,22 12,22 C17.52,22 22,17.52 22,12 C22,6.48 17.52,2 12,2 Z M12,20 C7.59,20 4,16.41 4,12 C4,7.59 7.59,4 12,4 C16.41,4 20,7.59 20,12 C20,16.41 16.41,20 12,20 Z" fill="#000000" fill-rule="nonzero"></path>
        <path d="M8.5,14 C8.5,14 9.5,16 12,16 C14.5,16 15.5,14 15.5,14" stroke="#000000" stroke-width="2" stroke-linecap="round"></path>
        <path d="M9,10 C9,10 9.5,11 12,11 C14.5,11 15,10 15,10" stroke="#000000" stroke-width="2" stroke-linecap="round"></path>
    </g>
</svg> 